<?xml version="1.0" encoding="UTF-8"?> <svg xmlns="http://www.w3.org/2000/svg" xmlns:xlink="http://www.w3.org/1999/xlink" width="297px" height="69px" viewBox="0 0 297 69"><!-- Generator: Sketch 43.2 (39069) - http://www.bohemiancoding.com/sketch --><title>Group 8</title><desc>Created with Sketch.</desc><defs><polygon id="path-1" points="0.112341068 0.227751761 43.0647746 0.227751761 43.0647746 68.7354718 0.112341068 68.7354718 0.112341068 0.227751761"></polygon><polygon id="path-3" points="8.81030769 20.7738669 0.424751131 20.7738669 0.424751131 0.116407907 8.81030769 0.116407907 8.81030769 20.7738669"></polygon><polygon id="path-5" points="9.12433846 20.7738669 0.739922172 20.7738669 0.739922172 0.116407907 9.12433846 0.116407907 9.12433846 20.7738669"></polygon><polygon id="path-7" points="8.82706968 20.7738669 0.440372851 20.7738669 0.440372851 0.116407907 8.82706968 0.116407907 8.82706968 20.7738669"></polygon><polygon id="path-9" points="21.4085973 0.818770492 21.4085973 21.7487705 0.96398552 21.7487705 0.96398552 0.818770492 21.4085973 0.818770492"></polygon></defs><g id="Page-1" stroke="none" stroke-width="1" fill="none" fill-rule="evenodd"><g id="Group-8"><g id="Page-1"><g id="Group-3" transform="translate(0.000000, 0.061273)"><mask id="mask-2" fill="white"><use xlink:href="#path-1"></use></mask><g id="Clip-2"></g><path d="M21.6411534,68.7149605 C21.6434643,68.720741 21.6457753,68.7213191 21.6477974,68.7158276 C31.0900511,69.0528309 43.0596178,65.0853836 42.9380041,54.3683338 C42.8140793,43.5044592 43.17141,26.1597753 43.0318864,10.169752 C41.7007791,-12.9600579 20.5235201,13.0602918 7.10094342,1.94641048 C15.2481984,17.5104109 39.5432182,-7.78708703 40.7608001,10.7824851 C40.4915744,22.9943727 40.3792044,42.1662731 40.463843,54.1824907 C40.0692482,61.7916539 34.399043,66.3744355 22.5646669,66.5010285 C22.5646669,66.4940919 22.5652446,66.4880223 22.5652446,66.4828199 C10.0638705,66.6036324 4.09295283,61.9798092 3.68824767,54.163415 C3.77288623,42.1469084 3.6602274,28.1239897 3.3910017,15.9121022 C3.68738107,14.7247872 18.8654133,13.2221458 18.8654133,13.2221458 L20.1944985,10.6694763 C20.1944985,10.6694763 16.0737854,10.1512544 0.112341068,13.3790864 C0.55171048,14.4999257 0.838268308,15.4366559 1.1196265,16.4121156 C0.980391747,32.402717 1.33743356,43.4853835 1.21408659,54.3492581 C1.09593926,64.7423109 12.3491114,68.7875058 21.6411534,68.7149605" id="Fill-1" fill="#FEFEFE" mask="url(#mask-2)"></path></g><polygon id="Fill-4" fill="#FEFEFE" points="16.1337546 39.2821497 16.3423178 38.3419511 16.5618581 37.4040647 16.7883312 36.4667564 17.0260702 35.5340725 17.2724753 34.6039898 17.5255243 33.6765083 17.7895504 32.7493158 18.0602205 31.8270368 18.3418675 30.906781 18.6316029 29.9894154 18.9279823 29.0720498 19.2353386 28.1595976 19.5510722 27.2494577 19.8725832 26.3416299 20.20536 25.4364033 20.4933622 24.6730881 17.4550404 18.8555914 17.191592 19.3454889 16.7981528 20.0903065 16.4119352 20.8371473 16.0326505 21.5860113 15.6608764 22.3354533 15.2971906 23.0898087 14.9413043 23.8461874 14.594084 24.6054563 14.254952 25.3653032 13.924775 26.1300635 13.6032641 26.8954019 13.2912858 27.6639196 12.9908623 28.4350385 12.6979493 29.2119379 12.4148579 29.9894154 12.1421658 30.7703611 11.8792952 31.552174 11.6276905 32.3397673 11.3867739 33.1308289 11.1568344 33.9253589 10.9361386 34.721623 10.7293086 35.5233785 10.5343222 36.3268682 10.3511794 37.1341153 10.1807468 37.9477209 10.0201357 38.7630606 9.87483475 39.5824467 9.74253285 40.4058791 9.62120796 41.233647 9.51548199 42.0657502 9.50883801 42.1250003 15.7862454 40.9524256 15.9321242 40.2272617"></polygon><polygon id="Fill-6" fill="#FEFEFE" points="25.5008447 16.119073 25.0842959 16.9899056 24.6758354 17.8627613 24.2722858 18.7379293 23.8797131 19.6154094 23.494651 20.4952017 23.1176772 21.3773063 22.7490807 22.261723 22.3859726 23.1484519 22.0332639 24.0374931 21.6889323 24.9288464 21.3529779 25.822801 21.0251118 26.7190677 20.7036009 27.6176467 20.3924892 28.5185379 20.0903325 29.4223193 19.7936642 30.3258117 19.5085507 31.2342175 19.2318144 32.1452245 18.9611444 33.0585438 18.7020291 33.972152 18.4489801 34.8906737 18.2071969 35.8115076 17.9740798 36.7349427 17.7478955 37.6586669 17.5329772 38.5873045 17.3244139 39.5185433 17.1276943 40.4500711 16.9370409 41.3865123 16.75852 42.3235316 16.7382991 42.4348063 23.2314915 41.2076058 23.3470391 40.5804214 23.5053391 39.7520755 23.670861 38.9260419 23.8462043 38.1002972 24.0270362 37.279755 24.2179784 36.461814 24.417009 35.6444511 24.621817 34.8320016 24.8373131 34.0204192 25.0588754 33.2117271 25.2914148 32.4082373 25.5329091 31.6056147 25.7836472 30.8061713 26.0430514 30.0099073 26.3119882 29.2191346 26.5901688 28.4295181 26.8787487 27.6430809 27.1762836 26.860112 27.4839288 26.0806113 27.8019734 25.304868 28.1304172 24.532593 28.4712823 23.7637863 28.8208135 22.9987369 29.1810329 22.2374449 29.2463172 22.1047824 25.8197558 15.4658764"></polygon><polygon id="Fill-8" fill="#FEFEFE" points="31.8023437 19.7744888 31.4042826 20.5065893 31.018065 21.2424472 30.6408024 21.9823514 30.2765389 22.7239897 29.9209414 23.4716976 29.5763209 24.2228738 29.2446996 24.9778073 28.9211666 25.7364981 28.6077439 26.4989462 28.3050094 27.2648627 28.0118076 28.0339584 27.7281385 28.8068115 27.4545798 29.5828438 27.1905537 30.3646566 26.9354826 31.1473365 26.6899441 31.9329067 26.4530717 32.7219452 26.2251542 33.5161861 26.0035919 34.3112941 25.7927177 35.1092923 25.5879097 35.912493 25.3937899 36.7162717 25.2074695 37.5252529 25.0266377 38.3368353 24.8559162 39.1487068 24.6903944 39.9654916 24.5320943 40.7851668 24.3833269 41.6071541 24.2394703 42.4314536 24.237737 42.4412804 34.8149562 40.465505 35.1667984 25.1789687 32.0842797 19.2764986"></polygon><path d="M38.5955553,39.9314445 C38.5955553,39.9314445 37.636222,40.6447584 35.9992027,41.3635637 L35.9448953,41.3889979 L35.7311325,41.4780177 C33.9589225,42.2219682 31.4726289,42.9283455 28.5767194,42.8144696 L23.6205978,43.7402169 L22.781434,43.8968685 L22.9122915,43.0809507 L23.0185953,42.4329565 L16.1033656,43.7402169 L15.2402257,43.9035161 L15.3866821,43.0743032 L15.5481598,42.1803486 L8.93479797,43.4159308 L8.14214205,43.5639117 L8.22186983,42.7884574 L8.31604105,41.9338102 L8.42638892,41.0834984 L8.43823254,41.0014153 C6.85667598,41.4606762 5.90571996,41.9075089 5.90571996,41.9075089 L5.71997734,47.1160298 C5.71997734,47.1160298 12.5901435,43.0315275 22.0136208,46.6616824 C32.2202213,50.9259584 38.7073475,45.3191609 38.7073475,45.3191609 L38.5955553,39.9314445 Z" id="Fill-10" fill="#FEFEFE"></path><path d="M22.8677191,48.9066269 C12.8849919,44.873571 5.74935529,48.976571 5.74935529,48.976571 C5.68724851,50.9240219 5.46539729,52.8714729 5.82099475,54.8186348 C5.82099475,54.8186348 12.5900568,50.1005895 22.0135341,53.7313225 C31.4367225,57.3611884 38.4365908,53.7220737 38.7725452,52.8142459 C38.7529021,51.8379192 38.828008,48.273373 38.8502509,47.3655452 C39.1347866,46.6207276 32.8507352,52.9393938 22.8677191,48.9066269" id="Fill-12" fill="#FEFEFE"></path><path d="M6.43042121,56.7142347 C7.58936275,66.7647927 36.9286091,68.2162767 38.4287047,54.9589854 C38.4287047,54.9589854 34.095673,59.2007175 22.9745139,56.0318465 C13.1593305,51.8875159 6.5341251,56.3728961 6.43042121,56.7142347" id="Fill-14" fill="#FEFEFE"></path></g><g id="Group-7" transform="translate(52.452489, 30.983607)"><path d="M21.6784995,29.5620328 C21.6784995,30.9494098 21.3558027,32.0246557 20.7161104,32.7843279 C20.0741376,33.544 19.1824452,33.921541 18.0296308,33.921541 C16.9315493,33.921541 16.0603819,33.5256393 15.426391,32.7349836 C14.7866986,31.9477705 14.4697032,30.8472787 14.4697032,29.4438361 L14.4697032,15.1603934 L12.6270244,15.1603934 L12.6270244,29.076623 L12.6270244,29.471377 C12.6270244,30.5603934 12.7102643,31.3958033 12.881305,31.9799016 C13.0512054,32.5617049 13.3328525,33.1021967 13.7251059,33.6071148 C14.2735765,34.3071148 14.922391,34.8430164 15.6681285,35.2102295 C16.4138661,35.5774426 17.2303005,35.7621967 18.1197122,35.7621967 C19.7388977,35.7621967 21.0479294,35.2010492 22.0399656,34.0821967 C23.0263005,32.9633443 23.5211783,31.4577705 23.5211783,29.5620328 L23.5211783,15.1603934 L21.6784995,15.1603934 L21.6784995,29.5620328 Z" id="Fill-16" fill="#FEFEFE"></path><polygon id="Fill-18" fill="#FEFEFE" points="131.76031 15.1600492 129.889124 15.1600492 129.889124 35.4348033 137.332816 35.4348033 137.332816 33.6825082 131.76031 33.6825082"></polygon><path d="M122.280662,14.8327705 C119.323938,14.8327705 116.865513,15.8345738 114.899685,17.8335902 C112.939558,19.8337541 111.956644,22.3227705 111.956644,25.2983443 C111.956644,28.271623 112.939558,30.7617869 114.899685,32.7619508 C116.865513,34.7621148 119.323938,35.7627705 122.280662,35.7627705 C123.179196,35.7627705 124.040101,35.6457213 124.861097,35.411623 C125.686653,35.1832623 126.548699,34.811459 127.446092,34.3008033 L127.446092,32.193918 C126.582907,32.8686721 125.736825,33.354082 124.901006,33.6501475 C124.069748,33.943918 123.118762,34.0908033 122.057169,34.0908033 C119.887233,34.0908033 118.034291,33.3494918 116.498346,31.8680164 C114.96354,30.3842459 114.07869,28.4517869 113.841513,26.074082 L123.455142,26.074082 L123.455142,24.3229344 L113.841513,24.3229344 C114.136843,21.9957213 115.052481,20.111459 116.573604,18.669 C118.101567,17.2276885 119.928282,16.5035902 122.057169,16.5035902 C123.118762,16.5035902 124.069748,16.6527705 124.901006,16.9442459 C125.736825,17.241459 126.582907,17.7257213 127.446092,18.4004754 L127.446092,16.2649016 C126.576065,15.7680164 125.722002,15.4042459 124.896445,15.1747377 C124.065187,14.9452295 123.19516,14.8327705 122.280662,14.8327705" id="Fill-20" fill="#FEFEFE"></path><g id="Group-24" transform="translate(43.330317, 15.043182)"><mask id="mask-4" fill="white"><use xlink:href="#path-3"></use></mask><g id="Clip-23"></g><path d="M4.77032579,14.2185391 C6.16373756,13.1432932 7.17173756,12.0806702 7.78406335,11.0191948 C8.40095023,9.95427676 8.70882353,8.75853905 8.70882353,7.42509643 C8.70882353,5.32509643 7.94484163,3.58083414 6.4180181,2.19804725 C4.89233484,0.809522662 2.95615385,0.116407907 0.609475113,0.116407907 L0.424751131,0.116407907 L0.424751131,20.3923095 L2.29707692,20.3923095 L2.29707692,2.27378496 C3.60496833,2.46771938 4.67568326,3.05296528 5.51606335,4.03181774 C6.35074208,5.01181774 6.77150226,6.14788332 6.77150226,7.45148987 C6.77150226,8.33509643 6.55142986,9.16821119 6.1101448,9.94853905 C5.66885973,10.7323095 5.01662443,11.4414899 4.15343891,12.0852604 C3.82390045,12.3388669 3.45673303,12.551162 3.05991855,12.7164079 C2.66652489,12.8828014 2.4658371,13.0124735 2.4658371,13.1134571 C2.4658371,13.4990309 2.6619638,14.1634571 3.05079638,15.1170636 C3.43620814,16.0695227 3.90828054,16.9106702 4.4658733,17.6416538 C4.99267873,18.3072276 5.60500452,18.8959161 6.30627149,19.4042768 C7.01209955,19.91608 7.84677828,20.3682112 8.81030769,20.7744407 L8.81030769,18.6916538 C7.83765611,18.2050964 6.99727602,17.5659161 6.29258824,16.7832932 C5.59246154,16.0029653 5.08276018,15.1480473 4.77032579,14.2185391" id="Fill-22" fill="#FEFEFE" mask="url(#mask-4)"></path></g><path d="M106.565213,31.1712295 C106.046389,31.732377 105.46257,32.1959836 104.816036,32.5609016 C103.722516,33.1794262 102.446552,33.5202459 100.982443,33.5787705 L100.982443,17.0289344 C102.43629,17.0530328 103.713394,17.3835246 104.816036,18.0158197 C105.440905,18.375 106.011041,18.8305738 106.524163,19.3848361 C107.93924,20.9213934 108.648489,22.8928689 108.648489,25.2981148 C108.648489,27.7022131 107.951783,29.6622131 106.565213,31.1712295 M104.816036,16.1820492 C103.281231,15.5015574 101.495566,15.1595902 99.4556199,15.1595902 L99.1922172,15.1595902 L99.1922172,35.4354918 L99.6129774,35.4354918 C101.579946,35.4354918 103.313158,35.0958197 104.816036,34.4187705 C105.809213,33.9712295 106.702045,33.3779508 107.492253,32.6343443 C109.475186,30.7707377 110.466081,28.3264754 110.466081,25.2981148 C110.466081,22.2330328 109.470624,19.7795902 107.484271,17.9331967 C106.702045,17.2068033 105.811493,16.6227049 104.816036,16.1820492" id="Fill-25" fill="#FEFEFE"></path><path d="M59.0206805,14.8327705 C58.0343457,14.8327705 57.0514317,14.9980164 56.0753593,15.3273607 C55.0924452,15.6544098 54.2349611,16.1042459 53.5029068,16.6757213 L54.3159204,18.2030984 C54.8746534,17.7911311 55.4630335,17.451459 56.0890425,17.1978525 C56.7104905,16.9362131 57.3878118,16.751459 58.1210063,16.6470328 L58.1210063,35.4357213 L59.9100923,35.4357213 L59.9100923,16.6470328 C60.6512688,16.751459 61.3342914,16.9362131 61.9637213,17.1978525 C62.58859,17.451459 63.1826715,17.7911311 63.7402643,18.2030984 L64.5145086,16.6757213 C63.781314,16.1042459 62.9295312,15.6544098 61.9545991,15.3273607 C60.9853683,14.9980164 60.0092959,14.8327705 59.0206805,14.8327705" id="Fill-27" fill="#FEFEFE"></path><path d="M81.7214335,31.5568033 C80.1136507,33.2482787 78.1318588,34.0905738 75.7794787,34.0905738 L75.7509719,34.0905738 C73.4020127,34.0836885 71.4145195,33.2413934 69.799895,31.5568033 C68.1795692,29.8664754 67.3665557,27.782541 67.3665557,25.2981148 C67.3665557,22.8045082 68.165886,20.7148361 69.7599855,19.0290984 C71.3575059,17.3445082 73.3358769,16.5033607 75.6985195,16.5033607 L75.7509719,16.5045082 C78.0851077,16.5171311 80.0577774,17.3628689 81.6860851,19.0440164 C83.3200941,20.7366393 84.1365285,22.8228689 84.1365285,25.2981148 C84.1365285,27.782541 83.3326371,29.8664754 81.7214335,31.5568033 M82.2254335,17.1884426 C81.3097955,16.4184426 80.2926733,15.8297541 79.1763475,15.4304098 C78.0759855,15.0368033 76.9368543,14.8394262 75.7509719,14.8336885 L75.6985195,14.832541 C74.1124018,14.832541 72.6403113,15.1561475 71.282248,15.8079508 C69.9287457,16.4551639 68.7633882,17.3904098 67.7850353,18.612541 C67.0358769,19.5512295 66.469162,20.5828689 66.0860308,21.7166393 C65.700619,22.8492623 65.5101937,24.0461475 65.5101937,25.2981148 C65.5101937,26.7451639 65.7644742,28.0969672 66.2684742,29.350082 C66.7724742,30.610082 67.514791,31.7266393 68.4908633,32.7066393 C69.4521122,33.6912295 70.5581756,34.447459 71.8227367,34.9718852 C73.0656326,35.4905738 74.3746643,35.7545082 75.7509719,35.762541 L75.8045647,35.762541 C77.372438,35.762541 78.8285647,35.4389344 80.1718045,34.7963115 C81.5161846,34.1490984 82.6838226,33.215 83.6781394,31.9848361 C84.4181756,31.0622131 84.9848905,30.0328689 85.3748633,28.8979508 C85.7614154,27.7595902 85.9541213,26.5604098 85.9541213,25.2981148 C85.9541213,23.6663115 85.6371258,22.1515574 84.9985738,20.7641803 C84.3645828,19.3722131 83.4409629,18.1810656 82.2254335,17.1884426" id="Fill-29" fill="#FEFEFE"></path><g id="Group-33" transform="translate(149.375566, 15.043182)"><mask id="mask-6" fill="white"><use xlink:href="#path-5"></use></mask><g id="Clip-32"></g><path d="M5.08321629,14.2185391 C6.47776833,13.1432932 7.48462805,12.0806702 8.09809412,11.0191948 C8.714981,9.95427676 9.02057376,8.75853905 9.02057376,7.42509643 C9.02057376,5.32509643 8.25773213,3.58083414 6.7309086,2.19804725 C5.2029448,0.809522662 3.27018462,0.116407907 0.922365611,0.116407907 L0.739922172,0.116407907 L0.739922172,20.3923095 L2.60882715,20.3923095 L2.60882715,2.27378496 C3.9189991,2.46771938 4.9908543,3.05296528 5.82895385,4.03181774 C6.66477285,5.01181774 7.08439276,6.14788332 7.08439276,7.45148987 C7.08439276,8.33509643 6.86546063,9.16821119 6.42189502,9.94853905 C5.98060995,10.7323095 5.32837466,11.4414899 4.46632941,12.0852604 C4.13679095,12.3388669 3.77190407,12.551162 3.37394932,12.7164079 C2.98055566,12.8828014 2.77986787,13.0124735 2.77986787,13.1134571 C2.77986787,13.4990309 2.97599457,14.1634571 3.36254661,15.1170636 C3.74795837,16.0695227 4.22117104,16.9106702 4.77990407,17.6416538 C5.30556923,18.3072276 5.91789502,18.8959161 6.61916199,19.4042768 C7.32499005,19.91608 8.15852851,20.3682112 9.12433846,20.7744407 L9.12433846,18.6916538 C8.15054661,18.2050964 7.31130679,17.5659161 6.60547873,16.7832932 C5.90421176,16.0029653 5.39565068,15.1480473 5.08321629,14.2185391" id="Fill-31" fill="#FEFEFE" mask="url(#mask-6)"></path></g><path d="M176.582786,31.5568033 C174.976143,33.2482787 172.993211,34.0905738 170.640831,34.0905738 L170.613464,34.0905738 C168.262224,34.0836885 166.275871,33.2413934 164.662387,31.5568033 C163.042062,29.8664754 162.227908,27.782541 162.227908,25.2981148 C162.227908,22.8045082 163.026098,20.7148361 164.622478,19.0290984 C166.218858,17.3445082 168.198369,16.5033607 170.559871,16.5033607 L170.613464,16.5045082 C172.9476,16.5171311 174.92027,17.3628689 176.547437,19.0440164 C178.182586,20.7366393 178.99674,22.8228689 178.99674,25.2981148 C178.99674,27.782541 178.195129,29.8664754 176.582786,31.5568033 M177.086786,17.1884426 C176.173428,16.4184426 175.154025,15.8297541 174.0377,15.4304098 C172.938478,15.0368033 171.798206,14.8394262 170.613464,14.8336885 L170.559871,14.832541 C168.973754,14.832541 167.500523,15.1561475 166.1436,15.8079508 C164.790098,16.4551639 163.625881,17.3904098 162.647528,18.612541 C161.897229,19.5512295 161.330514,20.5828689 160.946243,21.7166393 C160.561971,22.8492623 160.371546,24.0461475 160.371546,25.2981148 C160.371546,26.7451639 160.625826,28.0969672 161.129826,29.350082 C161.634967,30.610082 162.376143,31.7266393 163.352215,32.7066393 C164.312324,33.6912295 165.419528,34.447459 166.682948,34.9718852 C167.925844,35.4905738 169.234876,35.7545082 170.613464,35.762541 L170.667057,35.762541 C172.23379,35.762541 173.689917,35.4389344 175.034297,34.7963115 C176.377537,34.1490984 177.548595,33.215 178.538351,31.9848361 C179.279528,31.0622131 179.847383,30.0328689 180.235075,28.8979508 C180.623908,27.7595902 180.816614,26.5604098 180.816614,25.2981148 C180.816614,23.6663115 180.498478,22.1515574 179.859926,20.7641803 C179.224795,19.3722131 178.301175,18.1810656 177.086786,17.1884426" id="Fill-34" fill="#FEFEFE"></path><g id="Group-38" transform="translate(207.529412, 15.043182)"><mask id="mask-8" fill="white"><use xlink:href="#path-7"></use></mask><g id="Clip-37"></g><path d="M4.78594751,14.2185391 C6.17935928,13.1432932 7.18735928,12.0806702 7.80082534,11.0191948 C8.41543167,9.95427676 8.72330498,8.75853905 8.72330498,7.42509643 C8.72330498,5.32509643 7.96046335,3.58083414 6.43363982,2.19804725 C4.90567602,0.809522662 2.97291584,0.116407907 0.625096833,0.116407907 L0.440372851,0.116407907 L0.440372851,20.3923095 L2.31269864,20.3923095 L2.31269864,2.27378496 C3.62173032,2.46771938 4.69244525,3.05296528 5.5305448,4.03181774 C6.3663638,5.01181774 6.78598371,6.14788332 6.78598371,7.45148987 C6.78598371,8.33509643 6.56705158,9.16821119 6.12576652,9.94853905 C5.68334118,10.7323095 5.03224615,11.4414899 4.1702009,12.0852604 C3.8383819,12.3388669 3.47349502,12.551162 3.07554027,12.7164079 C2.68328688,12.8828014 2.48145882,13.0124735 2.48145882,13.1134571 C2.48145882,13.4990309 2.67872579,14.1634571 3.0664181,15.1170636 C3.45182986,16.0695227 3.92390226,16.9106702 4.48149502,17.6416538 C5.00830045,18.3072276 5.61948597,18.8959161 6.32189321,19.4042768 C7.02772127,19.91608 7.86125973,20.3682112 8.82706968,20.7744407 L8.82706968,18.6916538 C7.85213756,18.2050964 7.01403801,17.5659161 6.30820995,16.7832932 C5.60808326,16.0029653 5.09952217,15.1480473 4.78594751,14.2185391" id="Fill-36" fill="#FEFEFE" mask="url(#mask-8)"></path></g><g id="Group-41" transform="translate(222.352941, 14.013770)"><mask id="mask-10" fill="white"><use xlink:href="#path-9"></use></mask><g id="Clip-40"></g><path d="M17.1752253,17.5430328 C15.5685828,19.2345082 13.586791,20.0768033 11.2332706,20.0768033 L11.2070443,20.0768033 C8.85580452,20.0710656 6.86945158,19.227623 5.25482715,17.5430328 C3.63450136,15.8527049 2.82148778,13.7687705 2.82148778,11.2843443 C2.82148778,8.7907377 3.61967783,6.70106557 5.21491765,5.01532787 C6.81357828,3.3307377 8.78966878,2.48959016 11.1534516,2.48959016 L11.2070443,2.4907377 C13.5400398,2.50336066 15.51499,3.34909836 17.1398769,5.0302459 C18.773886,6.72286885 19.5926009,8.80909836 19.5926009,11.2843443 C19.5926009,13.7687705 18.7875692,15.8527049 17.1752253,17.5430328 M20.4535059,6.75040984 C19.8183747,5.35844262 18.895895,4.16729508 17.6803656,3.17467213 C16.7658679,2.40467213 15.7476054,1.81598361 14.6312796,1.41663934 C13.5309176,1.02303279 12.394067,0.825655738 11.2070443,0.819918033 L11.1534516,0.818770492 C9.56847421,0.818770492 8.09410317,1.14237705 6.73718009,1.79418033 C5.38367783,2.44139344 4.21832036,3.37663934 3.24110769,4.59877049 C2.49194932,5.53745902 1.92409412,6.56909836 1.53868235,7.70286885 C1.1566914,8.8354918 0.96398552,10.032377 0.96398552,11.2843443 C0.96398552,12.7313934 1.21826606,14.0831967 1.72226606,15.3363115 C2.22740633,16.5963115 2.96858281,17.7128689 3.94693575,18.6928689 C4.90704434,19.677459 6.01424796,20.4336885 7.27766878,20.9581148 C8.52056471,21.4768033 9.82845611,21.7407377 11.2070443,21.7487705 L11.2606371,21.7487705 C12.8273701,21.7487705 14.2834968,21.4251639 15.6267367,20.782541 C16.9699765,20.1353279 18.1410353,19.2012295 19.1319312,17.9710656 C19.8731077,17.0484426 20.4398226,16.0190984 20.8275149,14.8841803 C21.2163475,13.7458197 21.4090534,12.5466393 21.4090534,11.2843443 C21.4090534,9.65254098 21.0920579,8.13778689 20.4535059,6.75040984" id="Fill-39" fill="#FEFEFE" mask="url(#mask-10)"></path></g><polygon id="Fill-42" fill="#FEFEFE" points="219.088344 35.434918 220.96067 35.434918 220.96067 15.1601639 219.088344 15.1601639"></polygon><path d="M188.56339,14.7796393 C186.879209,14.7796393 185.462992,15.385541 184.312458,16.6042295 C183.158503,17.8160328 182.584947,19.2757049 182.584947,20.9786557 C182.584947,22.553082 183.52111,24.2732459 185.396856,26.150623 C185.49834,26.2676721 185.58044,26.3502951 185.628331,26.4042295 C186.347843,27.1134098 186.856404,27.7778361 187.160856,28.3986557 C187.467589,29.0194754 187.620386,29.6735738 187.620386,30.3666885 C187.620386,31.400623 187.383209,32.3519344 186.915698,33.2148852 C186.442485,34.0824262 185.757182,34.8191475 184.860929,35.435377 L187.645471,35.435377 C188.266919,34.6802951 188.73101,33.8712787 189.043444,33.0037377 C189.36158,32.1419344 189.517797,31.2514426 189.517797,30.3391475 C189.517797,29.3384918 189.307987,28.4158689 188.888367,27.5666885 C188.472168,26.7220984 187.798268,25.8648852 186.874648,24.9973443 C186.034268,24.2066885 185.447028,23.490623 185.101526,22.8491475 C184.758304,22.2065246 184.584983,21.532918 184.584983,20.8214426 C184.584983,19.5648852 184.981797,18.5217705 185.776567,17.695541 C186.565634,16.8624262 187.566793,16.450459 188.77206,16.450459 C189.329652,16.450459 189.874702,16.5445574 190.414051,16.7373443 C190.949978,16.9312787 191.45968,17.2147213 191.938594,17.583082 L191.938594,15.6460328 C191.343372,15.3499672 190.772096,15.1296393 190.222485,14.9896393 C189.675155,14.8507869 189.120983,14.7796393 188.56339,14.7796393" id="Fill-44" fill="#FEFEFE"></path><path d="M199.242375,26.1922787 L194.956094,26.1922787 C195.3187,24.5788361 195.847786,23.0376885 196.554755,21.5642459 C197.259443,20.096541 198.154556,18.6701475 199.242375,17.2735902 L199.246936,17.2678525 C200.372384,18.751623 201.285741,20.2342459 201.99613,21.7111311 C202.701958,23.1903115 203.21166,24.6821148 203.529795,26.1922787 L199.242375,26.1922787 Z M199.246936,14.8867049 L199.242375,14.8912951 C196.935605,17.3745738 195.245723,20.1275246 194.18071,23.1593279 C193.111135,26.1922787 192.576348,29.7783443 192.576348,33.9209672 C192.576348,34.3352295 192.580909,34.6450656 192.58547,34.8550656 C192.590031,35.0673607 192.594592,35.259 192.602574,35.4357213 L194.290176,35.4357213 C194.290176,33.9347377 194.318682,32.5726066 194.375696,31.3458852 C194.43385,30.1191639 194.51709,29.0152295 194.629976,28.0203115 L199.242375,28.0203115 L203.827406,28.0203115 C203.939153,28.846541 204.026954,29.8104754 204.087388,30.9098197 C204.148963,32.0149016 204.17975,33.2771967 204.17975,34.7127705 L204.17975,35.4357213 L205.881035,35.4357213 C205.89928,35.2326066 205.908402,35.021459 205.914103,34.796541 C205.916384,34.5727705 205.920945,34.2468689 205.920945,33.8176885 C205.920945,29.729 205.387298,26.1681803 204.318863,23.1455574 C203.25271,20.1217869 201.559406,17.3711311 199.246936,14.8867049 L199.246936,14.8867049 Z" id="Fill-45" fill="#FEFEFE"></path><path d="M36.0938118,14.8327705 C33.1393683,14.8327705 30.6786624,15.8345738 28.7139747,17.8335902 C26.753848,19.8337541 25.7709339,22.3227705 25.7709339,25.2983443 C25.7709339,28.271623 26.753848,30.7617869 28.7139747,32.7619508 C30.6786624,34.7621148 33.1393683,35.7627705 36.0938118,35.7627705 C36.993486,35.7627705 37.8532507,35.6457213 38.6742462,35.411623 C39.500943,35.1832623 40.3629882,34.811459 41.2603819,34.3008033 L41.2603819,32.193918 C40.3983367,32.8686721 39.5499747,33.354082 38.7164362,33.6501475 C37.8851783,33.943918 36.9330516,34.0908033 35.8714588,34.0908033 C33.7015222,34.0908033 31.848581,33.3494918 30.3126353,31.8680164 C28.7755493,30.3842459 27.8929792,28.4517869 27.6558027,26.074082 L37.2682914,26.074082 L37.2682914,24.3229344 L27.6558027,24.3229344 C27.951133,21.9957213 28.8656308,20.111459 30.3867529,18.669 C31.9135765,17.2276885 33.7414317,16.5035902 35.8714588,16.5035902 C36.9330516,16.5035902 37.8851783,16.6527705 38.7164362,16.9442459 C39.5499747,17.241459 40.3983367,17.7257213 41.2603819,18.4004754 L41.2603819,16.2649016 C40.391495,15.7680164 39.5374317,15.4042459 38.7095946,15.1747377 C37.8806172,14.9452295 37.01059,14.8327705 36.0938118,14.8327705" id="Fill-46" fill="#FEFEFE"></path><path d="M7.28587873,26.1687541 C6.92897376,26.5233443 6.52759819,26.8136721 6.08403258,27.046623 C5.32461176,27.4402295 4.43976109,27.6582623 3.42948054,27.6972787 L3.42948054,17.2144918 C4.43063891,17.248918 5.31548959,17.4761311 6.08403258,17.8938361 C6.51163439,18.1267869 6.90160724,18.4171148 7.25623167,18.7694098 C8.24256652,19.7528525 8.73744434,20.9830164 8.73744434,22.4679344 C8.73744434,23.981541 8.25624977,25.2117049 7.28587873,26.1687541 M8.2471276,17.1559672 C7.61769774,16.6120328 6.89704615,16.1805574 6.08403258,15.8592459 C4.9072724,15.3933443 3.53894661,15.1603934 1.97791493,15.1603934 L1.68828597,15.1603934 L1.68828597,35.4351475 L3.42948054,35.4351475 L3.42948054,29.6699016 C4.40213213,29.5872787 5.28812308,29.3921967 6.08403258,29.0858033 C7.06466606,28.7094098 7.90960724,28.1643279 8.62113665,27.4505574 C9.91078371,26.1561311 10.5561774,24.5208852 10.5561774,22.5471148 C10.5561774,20.2830164 9.78763439,18.4859672 8.2471276,17.1559672" id="Fill-47" fill="#FEFEFE"></path><path d="M109.218738,7.05163934 L107.992947,7.05163934 L109.218738,3.75245902 L109.232422,3.71459016 L110.44453,7.05163934 L109.218738,7.05163934 Z M110.142358,0.782622951 L109.218738,0.782622951 L108.408005,0.782622951 L104.422757,11.1472131 L106.504892,11.1472131 L107.301942,8.97491803 L109.218738,8.97491803 L111.108168,8.97491803 L111.917761,11.1472131 L114.069453,11.1472131 L110.142358,0.782622951 Z" id="Fill-48" fill="#FEFEFE"></path><polygon id="Fill-49" fill="#FEFEFE" points="212.274195 2.60319672 214.206956 2.60319672 214.206956 11.1466393 216.208132 11.1466393 216.208132 2.60319672 218.142033 2.60319672 218.142033 0.783196721 212.274195 0.783196721"></polygon><polygon id="Fill-50" fill="#FEFEFE" points="175.322215 2.60319672 175.322215 0.783196721 169.780496 0.783196721 169.780496 11.1466393 175.322215 11.1466393 175.322215 9.32434426 171.769129 9.32434426 171.769129 6.76188525 175.322215 6.76188525 175.322215 4.96942623 171.769129 4.96942623 171.769129 2.60319672"></polygon><polygon id="Fill-51" fill="#FEFEFE" points="26.3487095 11.1469836 26.3487095 7.41747541 29.3373611 0.782393443 27.144619 0.782393443 25.3840398 5.24518033 23.6063566 0.782393443 21.3976507 0.782393443 24.3395511 7.41747541 24.3395511 11.1469836"></polygon><path d="M44.5685376,11.0159344 C45.0212253,11.2408525 45.5628543,11.3521639 46.1979855,11.3521639 C46.8331167,11.3521639 47.3736054,11.2408525 47.8274335,11.0159344 C48.2767005,10.7898689 48.6609719,10.4398689 48.9813882,9.96593443 C49.169533,9.68937705 49.3029448,9.37036066 49.3827638,9.00429508 C49.4625828,8.64052459 49.5047729,8.09085246 49.5047729,7.35986885 L49.5047729,0.783311475 L47.4944742,0.783311475 L47.4944742,6.76085246 C47.4944742,7.6972459 47.3964109,8.34445902 47.2025647,8.71052459 C47.0075783,9.07085246 46.6711982,9.25331148 46.1979855,9.25331148 C45.7236326,9.25331148 45.389533,9.07085246 45.1945466,8.71052459 C44.9984199,8.34445902 44.9003566,7.6972459 44.9003566,6.76085246 L44.9003566,0.783311475 L42.8923385,0.783311475 L42.8923385,7.35986885 C42.8923385,8.13904918 42.932248,8.69790164 43.0109267,9.03986885 C43.0907457,9.38298361 43.2252977,9.68937705 43.4123023,9.96593443 C43.7338588,10.4398689 44.1181303,10.7898689 44.5685376,11.0159344" id="Fill-52" fill="#FEFEFE"></path><path d="M4.79484163,3.74855738 L4.80738462,3.71527869 L6.02063348,7.05118033 L4.79484163,7.05118033 L3.56904977,7.05118033 L4.79484163,3.74855738 Z M2.87804525,8.97445902 L4.79484163,8.97445902 L6.68427149,8.97445902 L7.49386425,11.1467541 L9.64555656,11.1467541 L5.71732127,0.783311475 L4.79484163,0.783311475 L3.9841086,0.783311475 L0,11.1467541 L2.08213575,11.1467541 L2.87804525,8.97445902 Z" id="Fill-53" fill="#FEFEFE"></path><polygon id="Fill-54" fill="#FEFEFE" points="86.4857158 2.60319672 88.4173357 2.60319672 88.4173357 11.1466393 90.4185122 11.1466393 90.4185122 2.60319672 92.3524127 2.60319672 92.3524127 0.783196721 86.4857158 0.783196721"></polygon><polygon id="Fill-55" fill="#FEFEFE" points="152.953738 11.1472131 154.964036 11.1472131 154.964036 0.782622951 152.953738 0.782622951"></polygon><path d="M234.782243,3.60614754 C235.397989,2.99565574 236.141446,2.68696721 237.020595,2.67663934 L237.067347,2.6754918 C237.928252,2.6754918 238.663727,2.98418033 239.278333,3.60959016 C239.890659,4.23385246 240.197392,4.98778689 240.197392,5.87254098 C240.197392,6.83532787 239.89408,7.6397541 239.285175,8.28467213 C238.67741,8.93188525 237.92255,9.25319672 237.022876,9.25319672 L237.020595,9.25319672 C236.596414,9.25319672 236.182496,9.1602459 235.783401,8.97204918 C235.385446,8.785 235.026261,8.51762295 234.711546,8.17336066 C234.424197,7.85434426 234.207546,7.50319672 234.062731,7.11877049 C233.915636,6.73434426 233.844939,6.31893443 233.844939,5.87254098 C233.844939,4.98434426 234.157374,4.23040984 234.782243,3.60614754 M233.192704,9.71680328 C233.695564,10.2572951 234.264559,10.6646721 234.907672,10.940082 C235.551926,11.2143443 236.257754,11.3520492 237.020595,11.3520492 L237.022876,11.3520492 C237.737826,11.3520492 238.423129,11.2120492 239.079926,10.9286066 C239.734442,10.6463115 240.311419,10.242377 240.804016,9.71680328 C241.292052,9.21303279 241.663781,8.63581967 241.91236,7.98516393 C242.166641,7.33680328 242.29093,6.6402459 242.29093,5.90122951 C242.29093,5.18860656 242.156378,4.5092623 241.889555,3.8654918 C241.621591,3.21827869 241.232758,2.63877049 240.720776,2.12237705 C240.221338,1.62204918 239.654623,1.23762295 239.022912,0.973688525 C238.390062,0.708606557 237.733265,0.574344262 237.051383,0.574344262 L237.020595,0.575491803 C236.126623,0.580081967 235.297645,0.785491803 234.541645,1.18598361 C233.776523,1.59106557 233.139111,2.16368852 232.63055,2.9107377 C232.33408,3.35254098 232.111727,3.82647541 231.962351,4.33139344 C231.811835,4.83631148 231.735437,5.3745082 231.735437,5.94139344 C231.735437,6.66893443 231.858586,7.35172131 232.106025,7.99090164 C232.351184,8.62663934 232.716071,9.20270492 233.192704,9.71680328" id="Fill-56" fill="#FEFEFE"></path><polygon id="Fill-57" fill="#FEFEFE" points="132.876065 8.32242623 130.264843 0.783081967 127.609151 0.783081967 127.609151 11.1465246 129.595504 11.1465246 129.512264 3.62209836 132.114364 11.1465246 133.628644 11.1465246 136.223902 3.62209836 136.153205 11.1465246 138.133857 11.1465246 138.133857 0.783081967 135.477024 0.783081967"></polygon><polygon id="Fill-58" fill="#FEFEFE" points="66.2147674 0.782737705 64.310514 0.782737705 64.310514 11.1473279 66.284324 11.1473279 66.284324 4.3274918 70.5637629 11.1473279 72.4258262 11.1473279 72.4258262 0.782737705 70.4599982 0.782737705 70.4599982 7.4017541"></polygon><polygon id="Fill-59" fill="#FEFEFE" points="198.214534 11.1469836 198.214534 0.782393443 196.248706 0.782393443 196.248706 7.40140984 192.004615 0.782393443 190.100362 0.782393443 190.100362 11.1469836 192.073032 11.1469836 192.073032 4.32714754 196.352471 11.1469836"></polygon></g></g></g></svg> 